<svg width="124" height="34" viewBox="0 0 124 34" fill="none" xmlns="http://www.w3.org/2000/svg">
<path fill-rule="evenodd" clip-rule="evenodd" d="M11.3073 1.20452L3.32274 5.40215C2.84155 5.65512 2.59448 6.01487 2.55902 6.40018H2.55545V6.45391C2.55424 6.48324 2.55425 6.5127 2.55545 6.54225V27.3924C2.55409 27.4214 2.55419 27.4567 2.55545 27.4995C2.56758 27.9135 2.81247 28.3294 3.32274 28.5976L11.3073 32.7953C12.0898 33.2066 13.2804 33.2066 14.0629 32.7953L22.0474 28.5976C22.5598 28.3282 22.8211 27.9153 22.8311 27.4995H22.8314V27.4745V6.40018H22.8239C22.7775 6.01906 22.5187 5.6499 22.0474 5.40215L14.0629 1.20452C13.2804 0.793154 12.0898 0.793154 11.3073 1.20452ZM3.81222 27.4581L11.3073 31.3775C11.7587 31.6175 12.2284 31.8513 12.6851 31.8528C13.1056 31.8542 13.5146 31.6546 13.9279 31.4529L14.0078 31.414L21.5747 27.4243V18.1714L14.0629 22.1205C13.2804 22.5319 12.0898 22.5319 11.3073 22.1205L3.81222 18.1802V27.4581ZM3.81222 15.4193L10.9582 11.6625L3.81222 7.90572V15.4193ZM21.5747 7.89691V15.4281L14.4119 11.6625L21.5747 7.89691ZM13.4759 2.31066L21.4604 6.50829L21.4786 6.51813L21.4912 6.52527L21.4844 6.52917C21.4768 6.53348 21.4688 6.53784 21.4604 6.54225L13.4759 10.7399C13.0607 10.9582 12.3094 10.9582 11.8942 10.7399L3.90969 6.54225L3.89149 6.53241L3.87896 6.52527L3.88572 6.52137C3.89332 6.51706 3.90131 6.5127 3.90969 6.50829L11.8942 2.31066C12.3094 2.09237 13.0607 2.09237 13.4759 2.31066ZM13.4759 12.5851L21.4604 16.7828L21.4786 16.7926L21.4912 16.7997L21.4844 16.8036L21.4678 16.8128L21.4604 16.8167L13.4759 21.0143C13.4262 21.0405 13.3717 21.0635 13.3135 21.0834V12.5161C13.3717 12.536 13.4262 12.559 13.4759 12.5851ZM12.0567 12.5161C11.9985 12.536 11.9439 12.559 11.8942 12.5851L3.90969 16.7828C3.90131 16.7872 3.89332 16.7915 3.88572 16.7958L3.87896 16.7997L3.89149 16.8069L3.90969 16.8167L11.8942 21.0143C11.9439 21.0405 11.9985 21.0635 12.0567 21.0834V12.5161ZM22.7545 2.77098L22.104 3.84134L22.5576 4.11376L22.7053 4.20379C22.8305 4.28095 22.9334 4.34662 23.0268 4.40929L23.0511 4.42568C23.4767 4.71418 23.7097 4.95129 23.8651 5.26155C24.0525 5.63587 24.1469 6.1672 24.1469 6.97561H25.4037L25.4035 6.91938C25.3946 5.07338 24.9422 4.18598 23.7293 3.37205C23.6159 3.29591 23.4942 3.21843 23.3474 3.12826L23.2621 3.07612L22.7545 2.77098ZM3.29961 30.1751L2.64914 31.2455L2.14154 30.9403L2.05622 30.8882C1.90945 30.798 1.7878 30.7206 1.67433 30.6444C0.461416 29.8305 0.00906095 28.9431 0.000135141 27.0971L0 27.0408H1.25678C1.25678 27.8493 1.35117 28.3806 1.53858 28.7549C1.69392 29.0652 1.927 29.3023 2.35258 29.5908L2.37688 29.6072C2.47027 29.6698 2.57316 29.7355 2.6984 29.8127L2.84609 29.9027L3.29961 30.1751Z" fill="#1969FF"/>
<path fill-rule="evenodd" clip-rule="evenodd" d="M38.1709 14.8533V26.6199H35.379V14.8533H32.6978V12.6988H35.379V10.931C35.379 9.38425 35.7706 8.20574 36.5538 7.39551C37.337 6.58529 38.4381 6.18018 39.8571 6.18018C40.5942 6.18018 41.2668 6.27225 41.875 6.45639V8.74896C41.3774 8.60164 40.9075 8.52799 40.4652 8.52799C38.9357 8.52799 38.1709 9.40266 38.1709 11.152V12.6988H41.4327V14.8533H38.1709ZM52.3099 26.1504C51.5083 26.5923 50.5731 26.8133 49.5042 26.8133C48.2695 26.8133 47.1869 26.5187 46.2563 25.9294C45.3256 25.3402 44.6023 24.5069 44.0863 23.4297C43.5704 22.3525 43.3124 21.0957 43.3124 19.6594C43.3124 18.2231 43.575 16.9525 44.1002 15.8476C44.6254 14.7428 45.3579 13.8865 46.2977 13.2789C47.2376 12.6712 48.3064 12.3673 49.5042 12.3673C50.5731 12.3673 51.5037 12.5929 52.2961 13.0441C53.0885 13.4952 53.6966 14.1351 54.1205 14.9638V12.6988H56.8847V26.6199H54.1205V24.2445C53.7151 25.0731 53.1115 25.7084 52.3099 26.1504ZM50.1676 24.6036C48.8961 24.6036 47.9056 24.1709 47.1961 23.3054C46.4866 22.4399 46.1319 21.2246 46.1319 19.6594C46.1319 18.0758 46.4866 16.8374 47.1961 15.9443C47.9056 15.0512 48.8869 14.6047 50.14 14.6047C51.4115 14.6047 52.3928 15.0374 53.0839 15.9029C53.7749 16.7683 54.1205 18.0021 54.1205 19.6041C54.1205 21.1878 53.7749 22.4169 53.0839 23.2916C52.3928 24.1663 51.4207 24.6036 50.1676 24.6036ZM63.74 18.6926V26.6199H60.9757V16.621C60.9757 15.1663 60.902 13.8589 60.7546 12.6988H63.353L63.6017 15.1019C64.044 14.218 64.6844 13.5413 65.5229 13.0717C66.3614 12.6021 67.315 12.3673 68.3839 12.3673C71.7193 12.3673 73.3871 14.2272 73.3871 17.9469V26.6199H70.5952V18.1126C70.5952 16.8972 70.3603 16.0134 69.8904 15.4609C69.4204 14.9085 68.6695 14.6323 67.6375 14.6323C66.4581 14.6323 65.5137 15.0006 64.8042 15.7371C64.0947 16.4737 63.74 17.4589 63.74 18.6926ZM82.7302 26.8133C83.5041 26.8133 84.1952 26.712 84.8033 26.5095V24.2445C84.3058 24.3918 83.8174 24.4655 83.3383 24.4655C82.6012 24.4655 82.0253 24.2675 81.6106 23.8716C81.196 23.4757 80.9887 22.799 80.9887 21.8415V14.8533H84.831V12.6988H80.9887V8.25177L78.1968 9.21852V12.6988H75.4879V14.8533H78.1968V22.0624C78.1968 23.6092 78.593 24.7877 79.3855 25.598C80.1779 26.4082 81.2928 26.8133 82.7302 26.8133ZM96.9659 25.9294C95.9339 26.5187 94.7453 26.8133 93.4001 26.8133C92.0364 26.8133 90.8385 26.5187 89.8066 25.9294C88.7746 25.3402 87.9776 24.5023 87.4155 23.4159C86.8535 22.3294 86.5724 21.0589 86.5724 19.6041C86.5724 18.1494 86.8535 16.8742 87.4155 15.7786C87.9776 14.6829 88.7746 13.8405 89.8066 13.2512C90.8385 12.662 92.0364 12.3673 93.4001 12.3673C94.7453 12.3673 95.9339 12.662 96.9659 13.2512C97.9979 13.8405 98.7949 14.6829 99.3569 15.7786C99.919 16.8742 100.2 18.1494 100.2 19.6041C100.2 21.0589 99.919 22.3294 99.3569 23.4159C98.7949 24.5023 97.9979 25.3402 96.9659 25.9294ZM93.3724 24.6036C92.1009 24.6036 91.1196 24.1801 90.4285 23.333C89.7375 22.486 89.3919 21.243 89.3919 19.6041C89.3919 18.0021 89.7421 16.7683 90.4423 15.9029C91.1426 15.0374 92.1285 14.6047 93.4001 14.6047C94.6532 14.6047 95.6253 15.0374 96.3163 15.9029C97.0074 16.7683 97.3529 18.0021 97.3529 19.6041C97.3529 21.243 97.012 22.486 96.3301 23.333C95.6483 24.1801 94.6624 24.6036 93.3724 24.6036ZM106.226 18.7479V26.6199H103.462V16.621C103.462 15.1663 103.388 13.8589 103.241 12.6988H105.839L106.088 15.019C106.493 14.1719 107.074 13.5182 107.829 13.0579C108.585 12.5975 109.469 12.3673 110.483 12.3673C112.639 12.3673 114.049 13.2604 114.712 15.0466C115.136 14.218 115.758 13.5643 116.578 13.0855C117.398 12.6067 118.324 12.3673 119.356 12.3673C122.452 12.3673 124 14.2272 124 17.9469V26.6199H121.208V18.085C121.208 16.888 121.001 16.0134 120.586 15.4609C120.172 14.9085 119.504 14.6323 118.582 14.6323C117.513 14.6323 116.67 15.0006 116.053 15.7371C115.436 16.4737 115.127 17.4773 115.127 18.7479V26.6199H112.335V18.085C112.335 16.888 112.128 16.0134 111.713 15.4609C111.298 14.9085 110.63 14.6323 109.709 14.6323C108.64 14.6323 107.792 15.0006 107.166 15.7371C106.539 16.4737 106.226 17.4773 106.226 18.7479Z" fill="#1969FF"/>
</svg>
