<?xml version="1.0" standalone="no"?>
<!DOCTYPE svg PUBLIC "-//W3C//DTD SVG 20010904//EN"
 "http://www.w3.org/TR/2001/REC-SVG-20010904/DTD/svg10.dtd">
<svg version="1.0" xmlns="http://www.w3.org/2000/svg"
 width="512.000000pt" height="512.000000pt" viewBox="0 0 512.000000 512.000000"
 preserveAspectRatio="xMidYMid meet">
<metadata>
Created by potrace 1.14, written by Peter Selinger 2001-2017
</metadata>
<g transform="translate(0.000000,512.000000) scale(0.100000,-0.100000)"
fill="#000000" stroke="none">
<path d="M0 2560 l0 -2560 2560 0 2560 0 0 2560 0 2560 -2560 0 -2560 0 0
-2560z m2633 1641 c32 -8 751 -377 877 -451 25 -14 55 -41 68 -60 l22 -33 0
-1099 c0 -1171 2 -1127 -46 -1169 -11 -9 -57 -37 -104 -62 -193 -102 -563
-298 -674 -357 -111 -59 -126 -64 -197 -68 -47 -3 -91 0 -115 8 -33 11 -747
385 -871 456 -79 45 -73 -47 -73 1198 l0 1116 28 29 c15 17 157 98 337 192
171 89 361 189 424 222 162 86 225 101 324 78z m1031 -223 c72 -45 134 -106
161 -159 23 -45 45 -143 45 -201 0 -28 -1 -28 -64 -28 l-63 0 -7 66 c-11 107
-39 149 -148 218 l-58 36 31 50 c17 28 36 50 41 50 6 0 34 -14 62 -32z m-2272
-2530 c10 -110 43 -155 155 -219 24 -13 43 -28 43 -34 0 -5 -14 -31 -30 -58
l-30 -47 -40 22 c-159 90 -230 200 -230 356 l0 53 63 -3 62 -3 7 -67z"/>
<path d="M2280 3962 c-547 -286 -620 -326 -613 -333 5 -4 98 -55 208 -112 110
-58 270 -142 355 -187 251 -132 274 -142 330 -142 54 1 80 14 600 288 107 56
216 113 243 125 26 13 47 26 47 30 0 6 -212 119 -779 416 -110 57 -126 53
-391 -85z"/>
<path d="M1640 3100 c0 -214 2 -390 5 -390 3 0 34 15 68 34 34 18 123 65 197
103 74 39 210 110 303 158 92 47 167 90 167 94 0 4 -30 23 -67 43 -495 261
-662 348 -667 348 -3 0 -6 -175 -6 -390z"/>
<path d="M3100 3301 c-195 -104 -355 -192 -355 -196 0 -7 710 -385 722 -385 2
0 3 173 3 385 0 212 -3 385 -7 384 -5 0 -168 -85 -363 -188z"/>
<path d="M2335 2923 c-143 -75 -412 -216 -597 -313 -38 -19 -68 -37 -68 -40 0
-3 132 -74 293 -158 160 -83 345 -180 409 -214 65 -34 120 -59 123 -56 3 2 4
199 3 435 l-3 431 -160 -85z"/>
<path d="M2630 2571 l0 -440 148 77 c485 253 682 358 682 362 0 3 -44 28 -98
56 -53 28 -185 98 -292 154 -107 56 -250 131 -317 167 l-123 64 0 -440z"/>
<path d="M1640 1957 l0 -474 208 -108 c114 -60 222 -117 241 -128 19 -10 121
-63 227 -118 247 -127 238 -126 431 -27 77 40 271 143 431 228 l292 155 0 467
c0 258 -2 468 -5 468 -4 0 -233 -119 -510 -265 -295 -156 -339 -171 -441 -155
-59 10 -76 18 -531 256 -182 96 -334 174 -337 174 -3 0 -6 -213 -6 -473z"/>
</g>
</svg>
